<svg width="83" height="82" viewBox="0 0 83 82" fill="none" xmlns="http://www.w3.org/2000/svg">
<ellipse cx="41.1702" cy="41.2173" rx="16.9114" ry="16.7691" fill="#3164FA"/>
<path fill-rule="evenodd" clip-rule="evenodd" d="M22.0271 1.32316C21.9117 1.09074 21.6908 0.928724 21.4344 0.888558C21.1781 0.848392 20.9181 0.935064 20.7372 1.12106L0.926671 21.4835C0.770865 21.6437 0.689132 21.8617 0.701253 22.0848C0.713374 22.3079 0.818245 22.5158 0.990484 22.6581L8.95618 29.2403C8.07267 30.5318 7.19802 31.9483 6.39299 33.4569C4.03501 37.8756 2.23229 43.1632 2.63493 48.4534C3.13018 54.9601 5.82716 59.0193 9.65841 60.2065C10.4847 60.4625 11.3426 60.5781 12.2176 60.559C12.4512 61.4887 12.7698 62.3763 13.1556 63.2088C14.8548 66.8743 17.9397 69.6185 20.9616 70.0271C22.0308 70.1716 23.1385 70.1379 24.2307 69.9502C24.9222 72.6268 26.4324 75.064 28.4332 76.7615C30.0035 78.0939 31.9 78.9909 33.9671 79.1683C36.0429 79.3463 38.2341 78.7933 40.3678 77.3187C40.7313 77.0675 40.8223 76.5692 40.5711 76.2057C40.3199 75.8423 39.8216 75.7513 39.4581 76.0025C37.6056 77.2828 35.7803 77.7179 34.1039 77.5741C32.4188 77.4295 30.8273 76.6945 29.4683 75.5415C27.7206 74.0587 26.3973 71.918 25.7869 69.5762C27.0815 69.1751 28.3148 68.5639 29.3895 67.7863C31.7761 66.0594 33.494 63.4184 33.2206 60.3007C33.0881 58.7905 32.54 57.6179 31.5739 57.0098C30.5886 56.3895 29.4094 56.5049 28.3647 57.0585C26.3005 58.1525 24.3998 61.08 23.8983 65.3071C23.7764 66.3339 23.7907 67.3662 23.9245 68.3791C22.9975 68.5351 22.0652 68.5617 21.176 68.4415C18.8829 68.1314 16.1697 65.9065 14.6073 62.5359C14.2914 61.8543 14.0259 61.1321 13.8232 60.3777C16.4918 59.8389 19.236 58.124 21.6665 55.3926C23.5555 53.2697 24.4517 51.2405 24.5478 49.4935C24.6449 47.7275 23.913 46.2758 22.6398 45.4817C20.0636 43.8749 16.1109 45.2595 13.5996 49.9303C11.9414 53.0146 11.5234 56.1314 11.908 58.9565C11.2892 58.9461 10.6944 58.8524 10.132 58.6782C7.19868 57.7692 4.70144 54.5218 4.23032 48.332C3.85987 43.4648 5.51996 38.4914 7.80457 34.2102C8.55642 32.8012 9.37134 31.4759 10.1948 30.2638L16.9355 35.8338C17.1117 35.9793 17.3417 36.0426 17.5675 36.0077C17.7933 35.9727 17.9934 35.8429 18.1173 35.6509L29.7137 17.684C29.8666 17.4471 29.8835 17.1471 29.7581 16.8945L22.0271 1.32316ZM11.1199 28.9526L17.261 34.0272L28.1227 17.1986L21.0963 3.04637L2.6785 21.9774L9.88441 27.9317C11.2815 26.0316 12.6474 24.474 13.741 23.3897C14.0547 23.0786 14.5612 23.0807 14.8723 23.3944C15.1834 23.7082 15.1813 24.2147 14.8675 24.5258C13.817 25.5675 12.4847 27.0885 11.1199 28.9526ZM28.4516 66.49C27.5604 67.1349 26.5471 67.6449 25.4889 67.9919C25.393 67.1654 25.3885 66.3271 25.4871 65.4956C25.952 61.5776 27.6751 59.2349 29.114 58.4723C29.8208 58.0977 30.363 58.1381 30.7215 58.3638C31.0993 58.6016 31.5175 59.1958 31.6267 60.4405C31.8365 62.8326 30.5344 64.9829 28.4516 66.49ZM20.4712 54.329C18.1806 56.9031 15.7425 58.359 13.5022 58.807C13.1442 56.2727 13.5121 53.4719 15.0089 50.688C17.3294 46.3718 20.3829 45.9597 21.793 46.8393C22.5129 47.2883 23.0192 48.1505 22.9502 49.4057C22.8801 50.6799 22.206 52.3793 20.4712 54.329Z" fill="#001F5C"/>
<path d="M61.569 28.3032C61.2478 27.9992 61.2334 27.493 61.5369 27.1725L71.405 16.7535C71.7085 16.4331 72.215 16.4198 72.5362 16.7238C72.8575 17.0278 72.8719 17.534 72.5684 17.8544L62.7003 28.2734C62.3967 28.5939 61.8903 28.6072 61.569 28.3032Z" fill="#001F5C"/>
<path d="M55.266 24.1091C54.905 23.8537 54.8188 23.3545 55.0736 22.9941L67.4449 5.49846C67.6997 5.13809 68.199 5.05301 68.5601 5.30844C68.9211 5.56386 69.0073 6.06306 68.7525 6.42343L56.3812 23.9191C56.1264 24.2795 55.6271 24.3646 55.266 24.1091Z" fill="#001F5C"/>
<path fill-rule="evenodd" clip-rule="evenodd" d="M56.6407 49.862C56.3001 49.7418 55.9212 49.8648 55.7161 50.1621C55.511 50.4594 55.5305 50.8573 55.7638 51.1331L80.8893 80.8383C81.1061 81.0946 81.46 81.1883 81.7752 81.0729C82.0905 80.9574 82.3001 80.6574 82.3001 80.3217V59.4801C82.3001 59.1409 82.0862 58.8385 81.7663 58.7256L56.6407 49.862ZM80.7001 78.1371L58.8907 52.3524L80.7001 60.0462V78.1371Z" fill="#001F5C"/>
</svg>
